<svg width="723" height="1024" viewBox="0 0 723 1024" fill="none" xmlns="http://www.w3.org/2000/svg">
<g filter="url(#filter0_d_112_803)">
<rect width="720" height="1024" fill="#0096C7"/>
<g opacity="0.4">
<path d="M298.802 840.832C276.185 840.832 269.401 820.74 261.585 782.233C261.097 779.572 260.98 776.799 261.243 774.074C261.506 771.349 262.143 768.725 263.117 766.352C264.14 763.37 265.945 761.086 268.141 759.995C277.588 756.623 287.279 756.377 296.655 756.132C309.537 755.805 321.733 755.498 333.7 747.956C337.667 745.134 341.493 741.924 345.151 738.35C356.087 728.314 368.469 716.95 379.634 722.264C387.148 725.841 391.3 731.074 391.987 737.819C393.575 753.454 375.439 771.543 363.444 783.52C361.311 785.564 359.465 787.486 358.034 789.018C353.325 794.38 348.855 800.155 344.65 806.31C334.387 820.617 322.735 836.969 309.036 839.728C305.647 840.441 302.227 840.81 298.802 840.832ZM269.2 765.943C268.169 766.687 267.343 767.903 266.853 769.397C265.482 772.763 265.082 776.757 265.736 780.536C274.439 823.602 280.394 839.36 308.507 833.678C320.817 831.184 331.409 816.325 341.715 801.956C346.053 795.606 350.666 789.654 355.529 784.134C356.96 782.539 358.892 780.679 361.054 778.513C370.83 768.763 389.009 750.613 387.807 738.718C387.363 734.446 384.185 730.89 378.345 728.11C369.127 723.716 357.661 734.242 347.541 743.521C343.695 747.286 339.662 750.647 335.474 753.577C322.706 761.753 309.523 762.018 296.826 762.345C287.637 762.489 278.175 762.816 269.2 765.943Z" fill="#55B9DA"/>
<path d="M679.414 439.694C673.239 439.643 667.231 436.827 662.237 431.641C643.628 412.899 635.842 367.687 634.339 346.39C632.263 316.692 640.265 292.9 647.994 269.927C652.174 257.5 656.483 244.664 659.245 230.888C661.564 219.32 661.793 204.522 662.108 188.865C662.695 152.688 663.368 111.687 691.108 98.4836C697.263 95.5403 699.697 97.2777 702.116 99.8121C702.417 100.119 702.717 100.446 703.046 100.752C703.189 100.875 703.323 101.02 703.447 101.182L706.138 105.106C706.235 105.234 706.322 105.378 706.396 105.535C709.931 113.036 708.414 127.895 706.639 135.519C699.167 167.506 691.538 205.728 691.538 246.606C691.538 266.064 697.736 281.128 704.306 297.091C714.884 322.823 726.879 351.99 712.207 404.396C707.112 422.587 698.566 434.298 687.516 438.243C684.867 439.2 682.146 439.688 679.414 439.694ZM696.405 103.062C695.019 103.179 693.653 103.592 692.354 104.288C667.476 116.143 666.875 153.179 666.288 189.008C666.03 205.074 665.787 220.239 663.31 232.585C660.448 246.892 656.053 259.932 651.859 272.564C644.044 295.823 636.657 317.775 638.619 345.776C640.279 369.404 648.638 410.425 664.699 426.613C667.789 429.823 671.345 432 675.103 432.983C678.862 433.967 682.727 433.732 686.413 432.295C698.623 427.942 705.022 413.471 708.157 402.107C722.056 352.501 711.12 325.91 700.541 300.197C693.971 284.234 687.186 267.74 687.186 246.606C687.186 204.849 694.93 166.035 702.502 133.578C704.134 126.608 705.136 114.385 702.875 109.194L700.498 105.739C700.169 105.433 699.854 105.106 699.539 104.779C698.676 103.679 697.561 103.069 696.405 103.062Z" fill="#55B9DA"/>
<path d="M292.275 567.603C291.379 567.607 290.484 567.518 289.598 567.338C282.899 565.968 278.147 559.53 275.513 548.186C272.879 536.843 277.545 525.969 282.069 515.484C284.931 508.902 287.58 502.668 288.252 496.864C294.207 445.766 273.423 412.45 226.458 397.55L224.512 396.937C217.555 394.75 210.369 392.501 204.171 387.392C203.726 387.02 203.317 386.566 202.954 386.043C202.136 384.914 201.571 383.463 201.331 381.874C201.092 380.285 201.19 378.63 201.612 377.121C202.034 375.612 202.762 374.317 203.702 373.401C204.643 372.486 205.753 371.991 206.891 371.981C217.426 371.592 226.487 370.489 234.488 369.528C260.955 366.36 280.065 364.071 320.488 389.722C347.255 406.707 356.273 436.916 348.801 484.805C346.507 499.722 342.283 513.897 336.348 526.603C330.55 538.519 308.979 567.603 292.275 567.603ZM258.193 373.697C250.678 373.697 243.206 374.597 234.861 375.598C226.802 376.579 217.684 377.642 207.005 378.071C206.781 378.052 206.557 378.109 206.351 378.236C206.146 378.363 205.963 378.557 205.82 378.803C205.676 379.049 205.574 379.34 205.523 379.652C205.473 379.964 205.474 380.288 205.527 380.6C205.598 381.017 205.76 381.391 205.989 381.669C206.089 381.808 206.199 381.93 206.318 382.037C211.944 386.676 218.8 388.822 225.428 390.907L227.389 391.52C276.987 407.258 298.959 443.027 292.489 497.804C291.673 504.794 288.653 511.805 285.733 518.611C281.525 528.36 277.56 537.578 279.578 546.204C281.696 555.279 285.175 560.184 290.213 561.226C304.442 564.149 326.815 535.412 332.812 523.046C338.407 510.968 342.404 497.529 344.607 483.394C351.635 438.244 343.662 411.04 318.741 395.24C291.63 378.071 274.783 373.697 258.193 373.697Z" fill="#55B9DA"/>
<path d="M229.121 23.8187C226.057 31.1972 222.88 38.8414 222.88 48.3456C222.88 55.8059 225.07 62.4895 227.174 68.9687C228.934 73.7216 230.23 78.7969 231.024 84.0528C232.671 98.3601 226.73 110.624 221.548 118.534C205.717 142.345 173.009 160.209 151.552 156.775C140.745 155.038 133.631 149.867 129.809 140.996C122.337 123.684 128.807 94.9059 135.449 69.2957C136.451 65.4532 137.424 61.2427 138.455 56.787C142.048 41.3146 146.113 23.7574 152.769 14.0283C153.485 13.0064 154.344 11.8209 155.317 10.4924C157.364 7.65133 159.84 4.23799 162.288 0.436317H156.434C155.002 2.48023 153.571 4.40151 152.411 6.07751C151.424 7.44694 150.536 8.67328 149.806 9.71568C142.363 20.4667 138.126 38.7392 134.39 54.8657C133.373 59.2805 132.414 63.4297 131.441 67.1292C124.441 94.1292 117.642 124.543 126.231 144.205C130.74 154.649 139.113 160.924 151.166 162.866C153.12 163.173 155.084 163.324 157.049 163.316C179.35 163.316 209.51 145.656 224.755 122.744C233.214 110.031 236.879 96.3162 235.347 83.0717C234.493 77.257 233.081 71.6379 231.153 66.3729C229.149 60.2412 227.245 54.4569 227.245 48.3456C227.245 40.5174 229.979 34.0382 232.885 26.9459C236.02 19.3834 239.484 10.9829 239.226 0.375H234.932C235.147 9.24558 232.155 16.3584 229.121 23.8187Z" fill="#55B9DA"/>
<path d="M73.4401 24.1688C78.536 29.483 85.235 30.6889 93.3367 27.7661C100.179 25.2929 107.823 14.1536 116.497 0.438965H110.671C103.729 11.2104 97.3161 19.9992 92.2918 21.8183C85.3781 24.3119 80.0532 23.4534 75.9737 19.2225C72.1948 15.2573 69.7328 8.61461 68.058 0.438965H63.5491C65.4385 10.4541 68.4445 18.9568 73.4401 24.1688Z" fill="#55B9DA"/>
<path d="M272.235 45.5481C270.918 58.016 268.857 74.1629 264.534 88.4703C257.043 112.697 247.314 135.382 235.605 155.919C229.879 165.955 221.964 174.723 214.263 183.226C212.158 185.536 210.097 187.804 208.136 190.073C201.179 198.124 193.191 204.164 184.618 207.855C137.682 228.11 116.111 173.885 95.255 121.439C79.2947 81.337 64.222 43.3611 38.6569 38.885C25.7742 36.5958 12.9917 38.7419 0.266479 42.7684V49.0636C12.9058 44.9758 25.6025 42.7275 38.1273 44.9758C61.5595 49.0636 76.117 85.7314 91.519 124.464C109.197 168.919 128.893 218.484 165.623 218.484C172.5 218.385 179.327 216.848 185.892 213.926C194.995 210.023 203.476 203.614 210.856 195.06C212.802 192.832 214.849 190.584 216.925 188.275C224.826 179.567 232.985 170.574 238.983 159.987C250.943 138.971 260.879 115.764 268.527 90.9843C273.051 75.9411 275.169 59.2832 276.515 46.4474C278.331 31.2336 278.447 15.7047 276.858 0.438965H272.564C274.081 12.9681 274.138 27.7456 272.235 45.5481Z" fill="#55B9DA"/>
<path d="M715.972 646.314C710.628 645.732 705.264 645.636 699.912 646.027C671.055 648.46 645.146 668.51 620.082 687.805C601.989 701.765 583.266 716.215 563.813 723.614C515.875 741.887 477.456 720.446 452.736 661.602C444.877 642.921 439.424 628.184 440.698 608.276C442.515 579.662 449.801 555.135 457.517 529.279C461.353 516.403 465.318 503.076 468.553 489.198C473.004 470.108 473.677 451.815 474.393 432.439C474.622 426.307 474.851 419.766 475.238 413.348C475.896 401.882 478.444 390.273 480.963 379.052C483.003 370.383 484.666 361.544 485.944 352.583C489.881 321.72 479.059 266.943 464.087 242.028C445.192 210.531 417.824 196.939 382.754 201.62C347.112 206.382 314.733 228.538 298.601 241.333C274.625 260.362 232.184 288.343 217.455 262.058C216.556 260.491 215.9 258.67 215.53 256.715C215.16 254.759 215.084 252.714 215.307 250.714C216.553 236.611 228.892 220.056 235.977 212.411C241.502 206.505 247.428 200.618 253.154 194.936C281.152 167.18 310.096 138.463 315.75 85.975C319.285 53.1089 316.823 27.0695 309.68 0.519043H305.043C312.4 26.9468 315.063 52.5979 311.498 85.0348C306.073 134.845 277.96 162.785 250.649 189.826C244.923 195.529 238.926 201.456 233.343 207.424C231.239 209.693 212.76 229.907 210.985 249.856C210.69 252.671 210.81 255.544 211.337 258.289C211.865 261.034 212.788 263.592 214.048 265.798C221.921 279.861 236.678 282.456 257.935 273.504C270.403 268.251 284.76 259.197 300.634 246.606C316.508 234.016 348.228 212.289 383.098 207.649C416.693 203.152 442.83 216.05 460.78 245.932C474.808 269.293 485.343 322.537 481.665 351.397C480.413 360.107 478.793 368.701 476.812 377.13C474.278 388.678 471.659 400.615 470.958 412.756C470.571 419.276 470.328 425.775 470.099 432.05C469.412 450.997 468.753 468.841 464.473 487.236C461.296 500.869 457.316 514.072 453.566 526.826C446.065 552.048 438.293 578.129 436.389 607.684C434.958 629.39 441.012 645.68 449.014 664.709C468.868 711.944 497.124 736.103 531.85 736.103C543.017 735.97 554.123 733.75 564.887 729.501C584.841 721.918 603.778 707.283 622.143 693.16C646.792 674.131 672.243 654.448 700.184 652.118C705.431 651.731 710.691 651.827 715.929 652.404L715.972 646.314Z" fill="#55B9DA"/>
<path d="M715.972 544.774C693.431 555.541 671.591 569.096 650.7 585.284C643.286 591.238 636.161 597.896 629.372 605.212C622.029 612.754 614.442 620.562 606.341 626.346C580.661 644.741 534.083 644.741 512.526 617.394C483.21 580.174 491.756 534.411 500.015 490.14C503.164 473.298 508.446 452.348 514.057 430.151C533.324 353.79 557.315 258.749 530.977 202.337C501.647 139.527 436.99 142.941 386.261 167.079C382.224 169 377.214 172.23 371.947 175.664C355.557 186.231 333.156 200.742 320.788 187.498C317.081 183.533 315.063 179.322 314.604 174.785C313.717 165.751 318.999 155.776 324.095 146.17C326.099 142.409 327.988 138.832 329.548 135.255C331.638 130.493 333.843 125.69 336.133 120.601C350.805 88.2454 367.452 51.5981 364.403 12.2732C364.083 8.27706 363.552 4.32111 362.814 0.438965H358.363C359.197 4.54454 359.791 8.74226 360.138 12.9886C363.001 50.0652 346.811 85.7314 332.526 117.228C330.207 122.338 328.017 127.162 325.913 131.965C324.481 135.317 322.606 138.771 320.674 142.45C315.034 153.078 309.222 164.075 310.353 175.643C310.969 181.775 313.617 187.477 318.212 192.403C332.526 207.814 355.428 193.078 373.693 181.243C378.889 177.891 383.785 174.723 387.606 172.904C436.833 149.481 499.414 145.802 527.398 205.75C552.534 259.587 528.958 353.014 510.006 428.066C504.381 450.386 499.056 471.479 495.864 488.566C487.276 534.615 478.372 582.259 509.677 621.972C520.556 635.789 537.762 644.026 558.088 645.171C559.662 645.171 561.237 645.314 562.811 645.314C579.559 645.314 596.249 640.388 608.259 631.824C616.675 625.815 624.405 617.864 631.877 610.179C638.516 603.031 645.478 596.517 652.718 590.68C672.985 575.003 694.145 561.806 715.972 551.232V544.774Z" fill="#55B9DA"/>
<path d="M715.972 0.438965H715.629C715.629 8.61461 712.394 16.5859 706.11 24.4345C677.324 60.3256 638.404 54.2756 600.729 48.4096C582.336 45.5481 563.327 42.5844 546.164 44.8123C531.091 46.8562 518.194 56.7487 505.712 66.3756C493.23 76.0024 481.736 84.9139 468.009 87.0804C450.073 89.9419 430.792 87.7549 416.478 81.2757C396.939 72.4256 386.018 56.3195 384.014 33.3868C383.04 22.3293 384.529 11.5987 386.39 0.438965H381.981C380.192 11.3739 378.732 22.595 379.748 34.1635C383.885 81.8071 421.874 94.4589 452.063 94.4589C457.548 94.4589 463.029 94.0358 468.481 93.1917C483.039 90.8821 495.606 81.1735 507.759 71.7715C520.413 62.0016 532.365 52.7631 546.55 50.9236C563.284 48.757 581.248 51.5368 600.257 54.5004C638.905 60.5095 678.784 66.7639 708.944 29.0333C711.632 25.7642 713.996 21.9894 715.972 17.8122V0.438965Z" fill="#55B9DA"/>
<path d="M532.551 0.438965C530.031 1.62443 527.441 2.85078 524.778 4.15888C502.577 14.869 477.413 27.0303 457.502 10.0045C454.542 7.60601 451.967 4.3473 449.944 0.438965H444.82C447.281 6.69833 450.927 11.841 455.34 15.2778C463 21.6726 471.748 24.9194 480.619 24.6593C495.735 24.6593 511.552 17.0151 526.152 9.96359C530.747 7.73573 535.099 5.6305 539.278 3.83186C542.847 2.35279 546.482 1.21925 550.157 0.438965H532.551Z" fill="#55B9DA"/>
<path d="M715.972 147.601C715.8 148.418 715.6 149.256 715.428 150.094C710.017 177.156 710.833 207.324 715.972 237.226V147.601Z" fill="#55B9DA"/>
<path d="M715.972 515.913L713.768 516.751C703.748 520.675 694.73 528.177 686.07 535.412C681.776 538.948 677.481 542.627 673.015 545.775C647.422 564.047 587.575 586.019 565.173 553.95C514 480.962 545.806 367.464 569.023 284.542C570.698 278.411 572.831 272.545 575.078 266.147C579.516 253.659 584.096 240.741 585.299 227.047C587.474 202.193 573.26 188.213 560.721 175.765C546.221 161.458 533.696 149.194 542.714 123.339C545.105 116.492 548.883 110.053 552.548 103.799C553.693 101.755 554.838 99.8952 555.926 97.9535C561.279 88.388 571.156 90.5341 579.859 92.4145C581.377 92.7415 582.837 93.0686 584.239 93.3138C603.291 96.7272 647.923 108.868 650.986 148.234C653.248 177.196 643.714 198.432 633.637 220.895C629.518 229.757 625.724 238.919 622.272 248.345C619.066 257.604 615.931 266.147 612.91 274.323C592.771 328.711 579.473 364.643 607.557 434.811C614.242 451.53 628.627 480.921 649.827 489.996C667.29 497.477 691.81 493.103 715.986 479.777V473.032C692.182 486.542 667.762 491.304 651.058 484.151C631.29 475.689 617.648 447.708 611.279 431.786C584.368 364.541 596.535 331.634 616.704 277.205C619.753 269.029 622.902 260.445 626.137 251.227C629.503 241.979 633.211 232.994 637.244 224.308C647.264 201.825 657.656 178.77 655.237 147.661C651.845 103.963 604.823 90.9225 584.769 87.3456C583.338 87.1003 581.906 86.7733 580.475 86.4667C571.113 84.4228 559.447 81.8884 552.534 94.2336C551.474 96.1344 550.358 98.0353 549.227 99.977C545.219 106.29 541.737 113.245 538.849 120.702C528.157 151.218 543.458 166.322 558.245 180.916C570.899 193.425 582.865 205.218 581.004 226.393C579.902 239.024 575.493 251.451 571.213 263.47C569.023 269.601 566.762 276.04 565.001 282.294C541.34 366.769 508.933 482.434 562.138 558.365C571.357 571.548 585.928 576.495 601.96 576.495C628.041 576.495 657.971 563.373 674.962 551.273C679.514 548.023 683.966 544.303 688.26 540.706C696.677 533.654 705.437 526.398 714.927 522.678L716.001 522.249L715.972 515.913Z" fill="#55B9DA"/>
<path d="M715.972 955.17C710.447 956.907 704.936 958.583 699.511 960.218C673.674 968.047 649.283 975.446 632.95 987.116C620.698 995.85 609.716 1007.82 600.586 1022.39H606.512C614.705 1010.23 624.296 1000.15 634.869 992.594C650.714 981.291 674.848 973.974 700.399 966.227C705.537 964.674 710.748 963.08 715.972 961.445V955.17Z" fill="#55B9DA"/>
<path d="M441.384 1000.52C436.446 965.285 411.725 955.167 389.853 946.256C373.478 939.552 358.005 933.236 353.968 917.518C350.618 904.54 354.999 885.347 367.366 858.858C373.021 846.409 380.937 836.385 390.269 829.855C402.521 821.107 413.372 808.149 423.42 790.224C426.569 784.623 428.788 777.511 430.935 770.643C436.045 754.292 440.955 738.676 457.831 738.676C460.368 738.697 462.899 738.998 465.403 739.575C478.286 742.396 484.985 751.144 492.099 760.403C502.906 774.486 514.086 789.018 546.593 781.312C579.745 773.423 615.301 750.776 646.792 730.807L652.346 727.271C658.966 722.838 665.399 717.856 671.613 712.351C681.904 703.623 692.554 694.569 704.535 691.176C708.385 690.072 712.236 689.254 715.986 688.703V682.571C711.892 683.164 707.77 684.022 703.633 685.207C690.98 688.805 680.015 698.125 669.408 707.118C663.339 712.504 657.054 717.377 650.585 721.712L645.017 725.248C613.855 745.074 578.514 767.557 545.892 775.303C515.474 782.559 505.526 769.621 495.005 755.906C487.733 746.443 480.218 736.673 466.076 733.546C439.652 727.721 432.939 749.223 427.027 768.19C425.246 774.658 422.915 780.788 420.085 786.442C410.423 803.652 400.045 816.079 388.365 824.418C378.395 831.452 369.928 842.173 363.845 855.465C350.475 884.08 346.067 904.519 349.974 919.644C354.77 938.264 371.259 945.009 388.708 952.142C410.351 960.992 432.739 970.149 437.162 1001.73C438.113 1008.55 438.749 1015.45 439.065 1022.39H443.36C443.038 1015.05 442.378 1007.74 441.384 1000.52Z" fill="#55B9DA"/>
<path d="M715.972 900.147C711.492 902.865 707.069 905.604 702.717 908.322C674.919 925.553 648.667 941.822 617.734 950.672C601.201 955.394 581.949 960.074 578.743 959.625C567.864 948.894 552.977 911.92 550.114 895.344C543.945 860.127 567.663 835.396 586.73 815.529C589.951 812.156 592.999 808.988 595.805 805.861C606.383 794.129 617.534 792.126 629.343 790C636.782 789.007 644.134 786.953 651.287 783.869C660.2 779.246 668.889 773.783 677.295 767.517C687.673 760.2 698.394 752.638 708.987 748.856C711.263 748.039 713.61 747.426 715.986 746.915V740.783C713.28 741.319 710.595 742.056 707.942 742.99C696.906 746.935 685.97 754.641 675.391 762.101C667.161 768.235 658.654 773.581 649.927 778.105C643.039 781.072 635.962 783.051 628.799 784.012C616.933 786.158 604.68 788.365 593.171 801.14C590.423 804.185 587.446 807.271 584.196 810.685C564.157 831.635 539.078 857.695 545.949 896.938C549.098 914.965 564.428 953.452 576.638 965.082C576.896 965.327 577.311 965.716 579.244 965.716C583.037 965.716 592.727 964.162 618.579 956.784C649.97 947.811 676.422 931.419 704.463 914.045L716.015 906.933L715.972 900.147Z" fill="#55B9DA"/>
<path d="M715.972 856.406C710.776 859.247 705.637 862.19 700.541 865.093C679.256 877.356 657.227 889.926 633.866 892.951C617.906 894.995 608.301 892.338 607.5 885.593C605.796 871.286 636.028 839.012 653.863 832.635C670.925 826.504 689.033 819.595 705.866 809.989C708.4 808.538 711.878 806.739 715.972 804.756V798.359C710.676 800.873 706.525 802.999 704.277 804.286C687.673 813.77 669.737 820.638 652.818 826.769C635.899 832.901 600.872 866.523 603.277 886.697C604.579 897.713 615.086 899.941 623.961 899.941C628.14 899.941 631.948 899.451 634.253 899.144C658.243 896.037 680.559 883.243 702.144 870.877C706.711 868.261 711.32 865.624 715.972 863.049V856.406Z" fill="#55B9DA"/>
<path d="M667.547 1022.39H667.304C665.037 1021.63 662.674 1021.66 660.419 1022.5L667.547 1022.39Z" fill="#55B9DA"/>
<path d="M715.972 1004.69C711.243 1008.68 707.532 1014.73 705.379 1021.94C705.339 1022.09 705.306 1022.24 705.279 1022.39H709.946C711.388 1018.38 713.448 1014.89 715.972 1012.18V1004.69Z" fill="#55B9DA"/>
<path d="M537.332 942.415C526.152 930.458 519.224 918.808 513.413 902.191C508.346 887.72 505.655 872.289 503.05 857.368C499.729 838.278 496.279 818.534 487.848 800.466C484.327 792.923 478.801 788.57 471.415 787.507C458.032 785.627 443.188 795.213 440.712 798.749C436.102 805.33 431.808 810.705 428.015 815.447C416.793 829.509 408.691 839.668 404.211 865.258C400.689 885.329 417.838 899.697 435.988 914.904C451.533 927.944 467.608 941.475 469.927 957.99C471.201 966.493 469.769 985.603 468.338 1007.64C468.009 1012.4 467.665 1017.35 467.336 1022.39H471.63C471.945 1017.55 472.274 1012.81 472.589 1008.23C474.207 984.745 475.452 966.186 474.178 956.784C471.473 937.51 454.553 923.346 438.192 909.61C421.459 895.61 405.671 882.365 408.405 866.688C412.556 842.958 419.856 833.822 430.878 820.005C434.714 815.202 439.065 809.786 443.76 803.02C445.364 800.731 457.001 793.353 467.923 793.353C468.968 793.353 469.998 793.353 471.015 793.557C477.041 794.416 481.521 797.87 484.298 803.777C492.314 820.946 495.506 839.3 498.898 858.737C501.561 873.985 504.295 889.744 509.577 904.828C515.718 922.364 523.018 934.648 534.755 947.218C547.137 960.463 544.947 994.106 541.54 1022.29H545.834C549.399 992.839 551.431 957.52 537.332 942.415Z" fill="#55B9DA"/>
<path d="M421.402 674.562C402.894 656.943 374.666 680.693 347.369 703.503C331.996 716.4 317.467 728.562 306.603 731.382C277.803 738.863 251.651 736.778 221.276 731.382C214.978 730.258 207.792 726.334 200.206 722.185C186.822 714.868 173.009 707.326 160.856 713.11C147.229 719.589 143.493 758.076 140.502 788.98C139.07 803.042 137.839 816.348 135.936 821.928C135.134 823.236 130.539 826.71 126.116 830.103C105.174 846.025 61.6023 879.157 46.3005 938.001C41.1045 957.97 36.4667 982.784 46.8015 997.52C59.6842 1015.92 86.1796 997.929 102.011 987.198C104.588 985.441 106.821 983.928 108.639 982.824C142.363 962.181 189.327 942.396 221.477 965.349C237.594 976.856 253.855 999.564 265.965 1022.44H271.39C258.751 997.541 241.202 972.584 223.395 959.871C212.545 952.125 200.177 948.977 187.237 948.977C160.04 948.977 130.353 962.855 106.949 977.183C105.06 978.328 102.798 979.881 100.165 981.659C85.3494 991.695 60.5574 1008.5 49.8361 993.187C41.2476 980.924 45.5419 958.441 50.3228 940.148C65.0663 883.409 107.622 851.053 128.134 835.479C136.265 829.347 138.884 827.303 139.743 824.769C141.976 818.371 143.264 805.127 144.753 789.797C147.444 762.102 151.123 724.167 162.216 718.894C172.895 713.805 185.992 720.938 198.66 727.887C206.518 732.179 213.919 736.226 220.732 737.453C251.522 742.93 277.989 745.036 307.376 737.453C318.984 734.448 333.828 722.001 349.545 708.838C374.48 687.929 402.751 664.219 419.012 679.692C432.424 692.466 422.475 719.875 415.891 738.005C415.204 739.885 414.56 741.663 413.987 743.298C405.485 767.58 380.421 812.056 362.013 823.726L359.45 825.341C341.73 836.501 312.085 855.182 309.165 884.41C305.272 923.244 330.006 950.939 356.187 980.188C368.297 993.698 380.521 1007.41 389.911 1022.44H395.637C385.717 1005.37 372.104 990.162 358.849 975.425C333.671 947.322 309.895 920.771 313.431 885.371C316.021 859.495 345.408 840.977 361.197 831.044L363.773 829.408C383.312 817.002 408.848 771.791 417.838 746.119L419.713 740.907C426.555 721.939 438.006 690.381 421.402 674.562Z" fill="#55B9DA"/>
<path d="M326.328 1002.71C320.33 990.714 315.005 977.429 309.852 964.573C306.646 956.581 303.325 948.222 299.832 940.455C293.677 926.393 290.929 910.205 288.281 894.528C285.332 877.236 282.297 859.352 274.682 844.125C264.133 823.011 250.091 813.466 236.521 804.064C228.29 798.403 219.759 792.537 211.886 784.116C209.338 781.377 206.533 776.063 203.57 770.442C196.127 756.298 186.851 738.7 173.811 747.959C167.055 752.783 162.946 758.71 161.257 766.088C158.394 778.352 163.247 791.678 167.47 803.39C170.762 812.485 173.868 821.111 172.136 826.077C169.087 834.784 159.912 838.893 151.81 842.429C148.058 843.931 144.392 845.844 140.845 848.152C133.602 853.323 70.2338 899.842 76.7038 939.678C76.9122 941.415 77.4353 943.044 78.2213 944.403C79.0074 945.762 80.0288 946.804 81.1841 947.424C89.9444 952.044 108.195 933.996 127.719 913.475C131.166 909.627 134.754 906.045 138.469 902.744C165.179 883.695 204.171 872.311 226.659 892.382C268.613 929.826 278.561 956.356 293.62 996.499C296.626 1004.51 299.832 1013.05 303.511 1022.27H308.464C304.284 1011.93 300.72 1002.45 297.399 993.658C282.569 954.108 271.863 925.534 228.934 887.211C219.473 878.79 208.122 875.54 196.413 875.54C174.126 875.54 150.608 887.293 136.551 897.308C132.58 900.731 128.756 904.492 125.1 908.57C112.804 921.508 89.9158 945.564 82.6012 941.701C82.116 941.426 81.6928 940.966 81.3775 940.371C81.0621 939.777 80.8666 939.071 80.812 938.329C76.1599 909.714 119.26 870.41 142.692 853.67C146.041 851.528 149.495 849.738 153.027 848.315C161.93 844.329 172.036 839.812 175.929 828.775C178.649 821.029 175.056 811.075 171.249 800.528C167.441 789.982 163.047 777.841 165.308 767.948C166.611 762.226 170.018 757.463 175.686 753.416C184.818 746.876 191.56 757.852 200.106 774.039C203.255 780.028 206.232 785.69 209.267 788.939C217.469 797.728 226.186 803.717 234.617 809.501C248.301 818.903 261.227 827.774 271.147 847.6C278.304 861.907 281.081 878.401 284.029 895.897C286.763 912.044 289.598 928.723 296.125 943.623C299.517 951.369 302.81 959.586 305.987 967.536C311.198 980.515 316.58 993.944 322.706 1006.19C325.709 1011.88 329.016 1017.23 332.597 1022.19L332.683 1022.31H338.666C337.679 1020.82 336.662 1019.35 335.675 1017.9C332.298 1013.18 329.174 1008.1 326.328 1002.71Z" fill="#55B9DA"/>
<path d="M116.526 1015.81C110.574 1016.76 104.755 1018.98 99.263 1022.39H114.178C115.08 1022.19 115.982 1022.01 116.869 1021.92C125.232 1021.04 133.633 1021.2 141.976 1022.39H167.341C150.752 1016.39 133.601 1014.16 116.526 1015.81Z" fill="#55B9DA"/>
<path d="M101.739 693.733C97.216 690.258 92.9504 686.968 89.1428 683.697C81.1408 676.568 73.4888 668.667 66.2402 660.049C48.5194 639.917 31.7575 620.888 0.266479 623.831V629.963C30.3261 627.06 45.7281 644.577 63.5492 664.852C70.9524 673.633 78.7617 681.69 86.9241 688.971C90.8319 692.302 95.1404 695.613 99.7066 699.19C110.385 707.366 121.435 715.909 128.077 725.393C129.351 727.212 129.094 734.591 128.965 738.147C128.965 739.476 128.879 740.682 128.879 741.642C128.879 767.171 124.141 789.572 101.024 816C96.7293 820.905 91.5047 823.726 85.9794 826.689C79.9818 829.939 73.7695 833.291 68.7023 839.607C30.7555 886.964 -9.59595 956.58 9.65654 1022.39H14.3516C-5.61662 959.237 34.2052 890.807 71.608 844.165C76.074 838.565 81.6279 835.56 87.5683 832.371C93.1651 829.346 99.0196 826.24 103.772 820.721C121.464 800.507 133.245 779.332 133.245 741.581C133.245 740.702 133.245 739.537 133.331 738.392C133.545 732.261 133.803 724.739 131.183 720.999C124.026 710.881 112.704 702.174 101.739 693.733Z" fill="#55B9DA"/>
<path d="M0.266479 857.716V864.604C1.22131 865.42 2.10536 866.395 2.90028 867.507C3.95952 869.04 4.33169 872.494 3.7305 877.215C3.00685 882.642 1.84439 887.93 0.266479 892.974V907.056C3.95952 897.225 7.02274 886.515 7.96747 878.196C8.75475 871.267 8.06767 866.219 5.93487 863.174C4.29084 860.882 2.37057 859.033 0.266479 857.716Z" fill="#55B9DA"/>
<path d="M47.6601 720.06C44.7973 713.152 41.8486 705.998 36.0657 701.052C27.5917 693.796 15.0096 689.687 0.280396 689.238V695.37C13.249 695.819 25.5878 699.192 33.8756 706.284C38.7138 710.372 41.2617 716.504 43.9671 723.167C45.4732 727.015 47.1715 730.704 49.0486 734.204C59.8128 753.417 63.649 768.95 60.4999 780.396C54.4593 801.857 25.0581 808.153 0.380594 812.833V818.965C26.3321 814.039 57.5226 807.499 64.5222 782.624C68.4156 768.787 64.5222 751.679 52.5126 730.3C50.7258 727.057 49.1042 723.635 47.6601 720.06Z" fill="#55B9DA"/>
<path d="M371.002 293.822C368.025 292.248 365.276 290.47 362.585 288.753C356.087 284.563 349.946 280.578 341.658 279.556C320.402 276.797 294.422 282.56 266.981 288.651C219.344 299.239 170.075 310.153 134.49 281.13C108.467 259.893 95.6987 222.612 83.3456 186.578C71.3218 151.525 59.985 118.414 37.5404 99.1601C27.1054 90.2078 13.9794 86.8967 0.323736 87.4281V93.5598C12.1329 93.1306 24.9726 95.6037 35.4076 104.433C56.7929 122.829 67.872 155.082 79.5953 189.297C92.2347 226.087 105.361 264.288 132.472 286.464C169.373 316.571 221.634 304.859 267.754 294.64C294.951 288.508 320.717 282.887 341.386 285.585C348.958 286.566 354.784 290.307 360.939 294.252C363.673 296.009 366.507 297.828 369.599 299.484C399.287 315.386 415.848 330.694 424.995 350.704C435.129 372.881 436.904 402.354 430.721 446.298C427.486 469.333 421.102 487.503 414.345 506.737C409.711 519.328 405.596 532.295 402.021 545.571C399.798 554.873 397.92 564.336 396.395 573.92C392.989 593.664 389.467 614.062 380.22 629.106C353.267 673.111 313.059 698.169 263.947 701.603C222.121 704.506 175.199 691.077 135.234 664.813C120.505 655.206 106.477 642.228 92.9504 629.596C74.6999 612.632 55.9341 595.095 34.6204 584.998C24.6005 580.215 12.9774 578.703 0.266479 580.42V586.551C12.5766 584.834 23.7273 586.245 33.3035 590.803C54.0446 600.675 72.6386 617.987 90.5599 634.726C104.259 647.44 118.358 660.623 133.388 670.515C170.79 694.944 211.382 707.829 252.51 708.328C256.422 708.328 260.292 708.191 264.119 707.919C314.418 704.424 355.729 678.63 383.412 633.337C393.346 617.149 396.997 595.994 400.518 575.555C402.005 566.184 403.84 556.933 406.014 547.84C409.531 534.76 413.579 521.984 418.138 509.578C424.723 490.815 431.551 471.438 434.886 447.586C441.284 401.945 439.309 371.062 428.516 347.434C418.84 326.239 401.663 310.214 371.002 293.822Z" fill="#55B9DA"/>
<path d="M306.173 335.637C287.665 329.035 269.1 333.225 251.136 337.272C245.768 338.478 240.228 339.725 234.818 340.665C230.28 341.442 225.714 342.259 221.133 343.077C184.274 349.679 146.17 356.506 110.056 344.794C80.9695 335.412 46.4152 300.155 38.9146 257.498C36.9392 246.216 37.1969 232.971 37.4832 218.664C38.0701 188.578 38.7428 154.465 14.0653 141.241C9.6349 138.996 4.9674 137.856 0.266479 137.868V144C4.46231 143.991 8.62741 145.022 12.5766 147.045C34.377 158.737 33.8045 187.781 33.2033 218.582C32.9313 232.501 32.6593 246.87 34.7778 258.99C39.4728 285.786 53.0569 306 63.6351 318.264C77.1047 333.92 93.6947 345.755 109.111 350.762C145.956 362.719 184.446 355.831 221.663 349.168C226.243 348.33 230.81 347.533 235.319 346.756C240.815 345.816 246.398 344.549 251.808 343.322C269.343 339.378 287.479 335.29 305.129 341.585C323.35 348.085 342.159 365.008 355.443 386.858C370.029 410.812 376.656 437.955 374.051 463.402C370.057 503.402 354.255 538.373 327.072 567.315C278.404 619.087 206.833 636.399 161.171 626.752C140.545 622.439 121.292 608.54 102.655 595.214C95.6558 590.166 88.3412 584.995 81.1842 580.314C69.9476 573.099 59.9277 559.875 49.3066 545.935C34.6204 526.375 19.3901 506.427 0.266479 502.829V509.084C17.9301 512.844 32.373 531.853 46.4438 550.248C56.8359 563.942 67.6001 578.107 79.4665 585.73C86.6235 590.288 93.7806 595.48 100.723 600.508C119.661 614.161 139.228 628.285 160.599 632.802C207.134 642.633 280.15 624.994 329.706 572.22C357.432 542.685 374.251 505.343 378.374 464.24C381.079 437.056 374.08 408.135 358.692 382.811C344.85 360.164 325.197 342.505 306.173 335.637Z" fill="#55B9DA"/>
<path d="M200.965 406.07C191.875 400.879 182.356 395.851 173.181 391.007C154.859 381.298 135.821 371.263 119.074 359.347C113.749 355.545 106.764 355.933 100.007 356.322C96.192 356.741 92.3575 356.638 88.5559 356.015C78.7078 353.665 66.641 344.099 57.2224 336.046C40.618 321.739 20.4637 287.442 16.8852 256.722C16.0979 250.038 15.6828 242.905 15.2247 235.363C13.9221 213.003 12.4335 188.005 0.266479 173.8V182.344C8.55435 195.404 9.78537 215.905 10.9734 235.915C11.4315 243.579 11.8752 250.815 12.6768 257.744C16.4701 290.201 37.612 326.399 55.0466 341.319C64.7802 349.659 77.3051 359.571 87.8832 362.086C91.9827 362.785 96.1195 362.913 100.236 362.474C106.449 362.126 112.876 361.758 117.213 364.845C134.103 376.904 153.213 387.001 171.692 396.771C180.853 401.615 190.301 406.622 199.376 411.793C217.011 421.87 247.299 457.516 242.318 489.728C238.883 511.843 225.628 527.234 215.121 536.227C202.274 546.942 188.153 554.182 173.467 557.586C134.977 566.047 74.2705 519.712 29.954 485.906C20.8788 478.977 12.319 472.457 5.06171 467.265C3.44421 466.1 1.84103 464.976 0.266479 463.872V470.719L3.1293 472.763C10.2864 477.914 18.8748 484.434 27.907 491.322C69.0458 522.717 124.112 564.739 163.748 564.739C167.212 564.758 170.672 564.396 174.097 563.656C199.519 558.076 239.756 534.142 246.455 491.056C252.08 454.981 220.332 417.128 200.965 406.07Z" fill="#55B9DA"/>
<path d="M106.277 388.781L103.414 387.697L94.5106 384.304C69.1746 374.698 34.4772 361.556 17.2144 340.483C10.8589 332.553 4.76111 318.879 0.266479 304.735V318.45C4.37463 329.057 9.28437 338.684 14.5806 345.02C32.5448 366.992 67.7862 380.36 93.5229 390.109C96.6577 391.295 99.6351 392.419 102.398 393.502L105.261 394.585C120.405 400.349 133.488 405.336 130.124 431.744C128.693 442.433 124.155 451.794 116.798 458.825C105.704 469.433 88.785 474.032 75.6446 470.006C54.8462 463.772 34.6204 440.103 15.1388 417.191C10.1289 411.325 5.11896 405.52 0.266479 400.043V407.85C4.27443 412.408 8.32533 417.15 12.4192 421.933C32.3301 445.295 52.9281 469.454 74.6569 476.096C78.3185 477.198 82.0516 477.74 85.7933 477.711C97.5746 477.774 109.123 473.023 119.074 464.017C127.419 456.046 132.658 445.295 134.232 432.929C138.34 401.044 121.307 394.483 106.277 388.781Z" fill="#55B9DA"/>
</g>
<path d="M265.8 498.4C263.587 498.4 261.533 498.12 259.64 497.56C257.747 496.973 256.147 496.187 254.84 495.2L256.4 491.16C257.707 492.093 259.133 492.813 260.68 493.32C262.253 493.827 263.96 494.08 265.8 494.08C267.907 494.08 269.44 493.733 270.4 493.04C271.36 492.32 271.84 491.4 271.84 490.28C271.84 489.347 271.493 488.613 270.8 488.08C270.133 487.547 268.973 487.107 267.32 486.76L262.92 485.84C257.907 484.773 255.4 482.2 255.4 478.12C255.4 476.36 255.867 474.827 256.8 473.52C257.733 472.213 259.027 471.2 260.68 470.48C262.333 469.76 264.24 469.4 266.4 469.4C268.32 469.4 270.12 469.693 271.8 470.28C273.48 470.84 274.88 471.64 276 472.68L274.44 476.52C272.227 474.653 269.533 473.72 266.36 473.72C264.52 473.72 263.08 474.107 262.04 474.88C261 475.653 260.48 476.667 260.48 477.92C260.48 478.88 260.8 479.653 261.44 480.24C262.08 480.8 263.173 481.24 264.72 481.56L269.08 482.48C271.72 483.04 273.68 483.92 274.96 485.12C276.267 486.32 276.92 487.92 276.92 489.92C276.92 491.6 276.467 493.08 275.56 494.36C274.653 495.64 273.36 496.64 271.68 497.36C270.027 498.053 268.067 498.4 265.8 498.4ZM287.634 498.4C285.314 498.4 283.594 497.773 282.474 496.52C281.381 495.24 280.834 493.373 280.834 490.92V469.8H285.834V490.68C285.834 493.08 286.848 494.28 288.874 494.28C289.168 494.28 289.461 494.267 289.754 494.24C290.048 494.213 290.328 494.16 290.594 494.08L290.514 498.04C289.554 498.28 288.594 498.4 287.634 498.4ZM300.048 498.4C298.634 498.4 297.368 498.133 296.248 497.6C295.154 497.04 294.288 496.293 293.648 495.36C293.034 494.427 292.728 493.373 292.728 492.2C292.728 490.76 293.101 489.627 293.848 488.8C294.594 487.947 295.808 487.333 297.488 486.96C299.168 486.587 301.421 486.4 304.248 486.4H305.648V485.56C305.648 484.227 305.354 483.267 304.768 482.68C304.181 482.093 303.194 481.8 301.808 481.8C300.714 481.8 299.594 481.973 298.448 482.32C297.301 482.64 296.141 483.147 294.968 483.84L293.528 480.44C294.221 479.96 295.034 479.547 295.968 479.2C296.928 478.827 297.928 478.547 298.968 478.36C300.034 478.147 301.034 478.04 301.968 478.04C304.821 478.04 306.941 478.707 308.328 480.04C309.714 481.347 310.408 483.387 310.408 486.16V498H305.728V494.88C305.274 495.973 304.554 496.84 303.568 497.48C302.581 498.093 301.408 498.4 300.048 498.4ZM301.088 494.96C302.394 494.96 303.474 494.507 304.328 493.6C305.208 492.693 305.648 491.547 305.648 490.16V489.28H304.288C301.781 489.28 300.034 489.48 299.048 489.88C298.088 490.253 297.608 490.947 297.608 491.96C297.608 492.84 297.914 493.56 298.528 494.12C299.141 494.68 299.994 494.96 301.088 494.96ZM326.763 498.4C325.323 498.4 324.029 498.08 322.883 497.44C321.763 496.8 320.923 495.933 320.363 494.84V498H315.483V469.8H320.483V481.32C321.069 480.333 321.909 479.547 323.003 478.96C324.123 478.347 325.376 478.04 326.763 478.04C328.496 478.04 330.003 478.453 331.283 479.28C332.563 480.107 333.563 481.28 334.283 482.8C335.003 484.293 335.363 486.093 335.363 488.2C335.363 490.28 335.003 492.093 334.283 493.64C333.563 495.16 332.549 496.333 331.243 497.16C329.963 497.987 328.469 498.4 326.763 498.4ZM325.363 494.6C326.856 494.6 328.056 494.067 328.963 493C329.869 491.907 330.323 490.307 330.323 488.2C330.323 486.067 329.869 484.48 328.963 483.44C328.056 482.373 326.856 481.84 325.363 481.84C323.869 481.84 322.669 482.373 321.763 483.44C320.856 484.48 320.403 486.067 320.403 488.2C320.403 490.307 320.856 491.907 321.763 493C322.669 494.067 323.869 494.6 325.363 494.6ZM339.547 498V478.44H344.427V481.44C345.014 480.373 345.827 479.547 346.867 478.96C347.907 478.347 349.107 478.04 350.467 478.04C353.401 478.04 355.321 479.32 356.227 481.88C356.841 480.68 357.721 479.747 358.867 479.08C360.014 478.387 361.321 478.04 362.787 478.04C367.187 478.04 369.387 480.72 369.387 486.08V498H364.387V486.28C364.387 484.787 364.134 483.693 363.627 483C363.147 482.307 362.321 481.96 361.147 481.96C359.841 481.96 358.814 482.427 358.067 483.36C357.321 484.267 356.947 485.533 356.947 487.16V498H351.947V486.28C351.947 484.787 351.694 483.693 351.187 483C350.707 482.307 349.894 481.96 348.747 481.96C347.441 481.96 346.414 482.427 345.667 483.36C344.921 484.267 344.547 485.533 344.547 487.16V498H339.547ZM380.985 498.4C379.572 498.4 378.305 498.133 377.185 497.6C376.092 497.04 375.225 496.293 374.585 495.36C373.972 494.427 373.665 493.373 373.665 492.2C373.665 490.76 374.039 489.627 374.785 488.8C375.532 487.947 376.745 487.333 378.425 486.96C380.105 486.587 382.359 486.4 385.185 486.4H386.585V485.56C386.585 484.227 386.292 483.267 385.705 482.68C385.119 482.093 384.132 481.8 382.745 481.8C381.652 481.8 380.532 481.973 379.385 482.32C378.239 482.64 377.079 483.147 375.905 483.84L374.465 480.44C375.159 479.96 375.972 479.547 376.905 479.2C377.865 478.827 378.865 478.547 379.905 478.36C380.972 478.147 381.972 478.04 382.905 478.04C385.759 478.04 387.879 478.707 389.265 480.04C390.652 481.347 391.345 483.387 391.345 486.16V498H386.665V494.88C386.212 495.973 385.492 496.84 384.505 497.48C383.519 498.093 382.345 498.4 380.985 498.4ZM382.025 494.96C383.332 494.96 384.412 494.507 385.265 493.6C386.145 492.693 386.585 491.547 386.585 490.16V489.28H385.225C382.719 489.28 380.972 489.48 379.985 489.88C379.025 490.253 378.545 490.947 378.545 491.96C378.545 492.84 378.852 493.56 379.465 494.12C380.079 494.68 380.932 494.96 382.025 494.96ZM396.42 498V478.44H401.3V481.88C402.26 479.56 404.314 478.28 407.46 478.04L408.98 477.92L409.3 482.16L406.42 482.44C403.14 482.76 401.5 484.44 401.5 487.48V498H396.42ZM412.084 498V469.8H417.084V486.76H417.164L425.044 478.44H431.084L422.204 487.8L431.644 498H425.524L417.164 489.28H417.084V498H412.084ZM256.08 553V524.8H259.92L275.08 544.48V524.8H279.84V553H276.04L260.84 533.24V553H256.08ZM285.202 529.24V524.36H290.802V529.24H285.202ZM285.522 553V533.44H290.522V553H285.522ZM304.837 560.6C303.024 560.6 301.317 560.387 299.717 559.96C298.144 559.56 296.757 558.933 295.557 558.08L296.997 554.6C298.117 555.347 299.317 555.893 300.597 556.24C301.877 556.613 303.157 556.8 304.437 556.8C308.011 556.8 309.797 555.08 309.797 551.64V548.96C309.237 550.053 308.371 550.92 307.197 551.56C306.051 552.2 304.771 552.52 303.357 552.52C301.597 552.52 300.064 552.12 298.757 551.32C297.451 550.493 296.437 549.347 295.717 547.88C294.997 546.413 294.637 544.707 294.637 542.76C294.637 540.813 294.997 539.12 295.717 537.68C296.437 536.213 297.451 535.08 298.757 534.28C300.064 533.453 301.597 533.04 303.357 533.04C304.824 533.04 306.131 533.373 307.277 534.04C308.424 534.68 309.264 535.547 309.797 536.64V533.44H314.677V551.04C314.677 554.213 313.837 556.6 312.157 558.2C310.477 559.8 308.037 560.6 304.837 560.6ZM304.717 548.72C306.264 548.72 307.491 548.187 308.397 547.12C309.304 546.053 309.757 544.6 309.757 542.76C309.757 540.92 309.304 539.48 308.397 538.44C307.491 537.373 306.264 536.84 304.717 536.84C303.171 536.84 301.944 537.373 301.037 538.44C300.131 539.48 299.677 540.92 299.677 542.76C299.677 544.6 300.131 546.053 301.037 547.12C301.944 548.187 303.171 548.72 304.717 548.72ZM331.119 553V524.8H336.239V548.64H349.759V553H331.119ZM352.78 529.24V524.36H358.38V529.24H352.78ZM353.1 553V533.44H358.1V553H353.1ZM363.375 553V533.44H368.255V536.44C368.842 535.373 369.655 534.547 370.695 533.96C371.735 533.347 372.935 533.04 374.295 533.04C377.229 533.04 379.149 534.32 380.055 536.88C380.669 535.68 381.549 534.747 382.695 534.08C383.842 533.387 385.149 533.04 386.615 533.04C391.015 533.04 393.215 535.72 393.215 541.08V553H388.215V541.28C388.215 539.787 387.962 538.693 387.455 538C386.975 537.307 386.149 536.96 384.975 536.96C383.669 536.96 382.642 537.427 381.895 538.36C381.149 539.267 380.775 540.533 380.775 542.16V553H375.775V541.28C375.775 539.787 375.522 538.693 375.015 538C374.535 537.307 373.722 536.96 372.575 536.96C371.269 536.96 370.242 537.427 369.495 538.36C368.749 539.267 368.375 540.533 368.375 542.16V553H363.375ZM398.053 529.24V524.36H403.653V529.24H398.053ZM398.373 553V533.44H403.373V553H398.373ZM417.529 553.4C412.355 553.4 409.769 550.84 409.769 545.72V537.2H406.009V533.44H409.769V527.6H414.769V533.44H420.689V537.2H414.769V545.44C414.769 546.72 415.049 547.68 415.609 548.32C416.169 548.96 417.075 549.28 418.329 549.28C418.702 549.28 419.089 549.24 419.489 549.16C419.889 549.053 420.302 548.947 420.729 548.84L421.489 552.52C421.009 552.787 420.395 553 419.649 553.16C418.929 553.32 418.222 553.4 417.529 553.4ZM433.365 553.4C431.152 553.4 429.245 552.987 427.645 552.16C426.045 551.333 424.805 550.16 423.925 548.64C423.072 547.12 422.645 545.32 422.645 543.24C422.645 541.213 423.058 539.44 423.885 537.92C424.738 536.4 425.898 535.213 427.365 534.36C428.858 533.48 430.552 533.04 432.445 533.04C435.218 533.04 437.405 533.92 439.005 535.68C440.632 537.44 441.445 539.84 441.445 542.88V544.36H427.445C427.818 547.853 429.818 549.6 433.445 549.6C434.538 549.6 435.632 549.44 436.725 549.12C437.818 548.773 438.818 548.24 439.725 547.52L441.125 550.88C440.192 551.653 439.018 552.267 437.605 552.72C436.192 553.173 434.778 553.4 433.365 553.4ZM432.645 536.44C431.178 536.44 429.992 536.893 429.085 537.8C428.178 538.707 427.632 539.933 427.445 541.48H437.285C437.178 539.853 436.725 538.613 435.925 537.76C435.152 536.88 434.058 536.44 432.645 536.44ZM452.925 553.4C451.218 553.4 449.711 552.987 448.405 552.16C447.125 551.333 446.125 550.16 445.405 548.64C444.685 547.093 444.325 545.28 444.325 543.2C444.325 541.093 444.685 539.293 445.405 537.8C446.125 536.28 447.125 535.107 448.405 534.28C449.711 533.453 451.218 533.04 452.925 533.04C454.311 533.04 455.565 533.347 456.685 533.96C457.805 534.573 458.645 535.387 459.205 536.4V524.8H464.205V553H459.325V549.76C458.791 550.88 457.951 551.773 456.805 552.44C455.658 553.08 454.365 553.4 452.925 553.4ZM454.325 549.6C455.818 549.6 457.018 549.067 457.925 548C458.831 546.907 459.285 545.307 459.285 543.2C459.285 541.067 458.831 539.48 457.925 538.44C457.018 537.373 455.818 536.84 454.325 536.84C452.831 536.84 451.631 537.373 450.725 538.44C449.818 539.48 449.365 541.067 449.365 543.2C449.365 545.307 449.818 546.907 450.725 548C451.631 549.067 452.831 549.6 454.325 549.6Z" fill="#FDFEFF"/>
</g>
<defs>
<filter id="filter0_d_112_803" x="-3" y="-2" width="726" height="1030" filterUnits="userSpaceOnUse" color-interpolation-filters="sRGB">
<feFlood flood-opacity="0" result="BackgroundImageFix"/>
<feColorMatrix in="SourceAlpha" type="matrix" values="0 0 0 0 0 0 0 0 0 0 0 0 0 0 0 0 0 0 127 0" result="hardAlpha"/>
<feOffset dy="1"/>
<feGaussianBlur stdDeviation="1.5"/>
<feComposite in2="hardAlpha" operator="out"/>
<feColorMatrix type="matrix" values="0 0 0 0 0 0 0 0 0 0 0 0 0 0 0 0 0 0 0.1 0"/>
<feBlend mode="normal" in2="BackgroundImageFix" result="effect1_dropShadow_112_803"/>
<feBlend mode="normal" in="SourceGraphic" in2="effect1_dropShadow_112_803" result="shape"/>
</filter>
</defs>
</svg>
